<svg width="33" height="36" viewBox="0 0 33 36" fill="none" xmlns="http://www.w3.org/2000/svg">
<path d="M31.8179 7.57516C31.4681 6.22805 30.3437 4.88095 28.3199 3.38135C26.6956 2.18674 24.9715 1.50049 23.5973 1.50049C23.3224 1.50049 23.0725 1.5259 22.8227 1.57674C22.1981 1.70382 21.6483 2.16133 21.2986 2.84759C20.8738 3.66093 20.7738 4.75387 21.0487 5.4147C21.1485 5.61803 21.2735 5.87221 21.4234 6.10096C20.0991 6.91431 19.3495 7.14306 19.2495 7.16847C22.6978 8.33766 25.5713 10.7777 27.3703 13.9548L27.3953 13.6498C27.4703 12.811 27.7201 11.8452 28.07 10.8539C28.4197 10.9556 28.7695 11.0064 29.1194 11.0064C30.0439 11.0064 30.8435 10.6252 31.3432 9.93893C31.843 9.25268 32.0428 8.33765 31.8179 7.57516Z" fill="#5E12A0"/>
<path d="M28.2196 10.1175C30.4933 10.7529 31.4178 8.97371 31.1179 7.77912C30.7931 6.58451 29.7437 5.3645 27.8946 3.99198C26.0456 2.61947 24.1717 2.06029 22.9722 2.31445C21.7729 2.56863 21.4231 4.42407 21.7229 5.13574C21.8479 5.41533 22.1226 5.822 22.4975 6.27951C22.0228 6.60994 21.573 6.8641 21.1982 7.09284C23.497 8.13495 25.496 9.76164 26.9951 11.795C27.17 11.1087 27.4199 10.4987 27.6449 9.96497C27.8196 9.99039 28.0196 10.0412 28.2196 10.1175Z" fill="url(#paint0_radial_195_21)"/>
<path d="M15.2015 35.0255C22.9155 35.0255 29.1691 28.6643 29.1691 20.8175C29.1691 12.9706 22.9155 6.60938 15.2015 6.60938C7.4874 6.60938 1.23389 12.9706 1.23389 20.8175C1.23389 28.6643 7.4874 35.0255 15.2015 35.0255Z" fill="url(#paint1_radial_195_21)"/>
<path opacity="0.6" d="M29.9687 6.60917C28.0697 4.57582 26.4704 4.04206 24.5466 3.60997C23.0473 3.25413 23.4471 2.38995 25.2711 2.56787C24.3967 2.26287 23.5721 2.18662 22.9724 2.3137C21.7729 2.56787 21.4232 4.42331 21.723 5.13498C21.8479 5.41457 22.1228 5.82124 22.4977 6.27875C21.823 6.73626 21.2483 7.06668 20.7734 7.32085C20.9984 7.42252 21.2732 7.5496 21.598 7.72752C22.4476 8.18503 23.3721 8.94753 23.3721 8.94753C21.9729 7.72752 22.2727 7.16834 24.1967 5.79583C24.7964 5.36375 25.8957 5.41457 26.9203 5.94834C27.9448 6.48209 29.1441 7.82919 29.1441 7.82919L27.9947 10.0659C28.0697 10.0913 28.1446 10.1167 28.2195 10.1421C28.9441 10.3455 29.5188 10.2946 29.9687 10.1167C30.4934 9.7863 31.8677 8.66796 29.9687 6.60917Z" fill="#A98698"/>
<path d="M24.5212 4.83014C25.021 5.03348 25.6706 5.38932 26.4703 5.92309C27.4197 6.5585 28.2443 7.27019 28.7691 7.82935C27.8944 8.99853 27.3197 10.5998 26.97 11.7182C27.145 11.9723 27.3448 12.2265 27.5197 12.4807C27.6946 11.8453 27.9944 10.9048 28.3942 9.96438C28.4942 9.98979 28.6192 9.98979 28.744 9.98979C29.0438 9.98979 29.3937 9.93897 29.6686 9.7102C29.8684 9.55771 30.0934 9.27812 30.0683 8.76979C30.0683 8.28686 29.6936 7.67686 28.919 6.93976C28.3693 6.40601 27.6197 5.82142 26.8701 5.28765C24.7212 3.83888 23.222 3.43221 22.5473 4.11847C22.0976 4.57598 22.1475 5.13516 22.2974 5.54183C21.4979 6.07558 20.8232 6.45684 20.3735 6.71101C20.6733 6.81268 20.9482 6.93976 21.248 7.06684C22.0475 6.63476 23.1969 5.89766 24.5212 4.83014ZM29.2438 8.46479C29.3187 8.59187 29.3438 8.71894 29.3438 8.7952C29.3438 9.02396 29.2688 9.1002 29.2187 9.15104C29.1189 9.2273 28.919 9.27812 28.744 9.27812C28.8939 8.97312 29.0688 8.71895 29.2438 8.46479ZM23.0721 4.67765C23.147 4.6014 23.347 4.55055 23.6718 4.6014C23.4219 4.80473 23.172 4.98265 22.9222 5.16057C22.8971 4.98265 22.9222 4.80473 23.0721 4.67765Z" fill="#5E12A0"/>
<path d="M15.2014 5.77051C7.03067 5.77051 0.40918 12.506 0.40918 20.8174C0.40918 29.1287 7.03067 35.8643 15.2014 35.8643C23.3721 35.8643 29.9935 29.1287 29.9935 20.8174C29.9935 12.506 23.347 5.77051 15.2014 5.77051ZM15.2014 35.0255C7.48044 35.0255 1.23375 28.6713 1.23375 20.8174C1.23375 12.9635 7.48044 6.60926 15.2014 6.60926C22.9222 6.60926 29.1691 12.9635 29.1691 20.8174C29.1691 28.6713 22.8974 35.0255 15.2014 35.0255Z" fill="#5E12A0"/>
<path opacity="0.6" d="M15.2015 35.0255C22.9155 35.0255 29.1691 28.6643 29.1691 20.8175C29.1691 12.9706 22.9155 6.60938 15.2015 6.60938C7.4874 6.60938 1.23389 12.9706 1.23389 20.8175C1.23389 28.6643 7.4874 35.0255 15.2015 35.0255Z" fill="url(#paint2_linear_195_21)"/>
<path opacity="0.6" d="M15.1017 33.2974C7.4807 32.052 2.30843 24.7572 3.55776 17.0051C4.10748 13.5738 5.80658 10.6509 8.20531 8.54126C4.70716 10.6 2.10853 14.1838 1.4089 18.5556C0.184548 26.3077 5.35681 33.6024 12.9528 34.8479C17.2005 35.5595 21.2983 34.2125 24.3218 31.5691C21.6482 33.1449 18.4 33.8312 15.1017 33.2974Z" fill="#A98698"/>
<path opacity="0.6" d="M17.4251 6.81249C13.9019 6.2279 10.4787 7.04124 7.68018 8.84585C7.6302 8.89668 7.58023 8.94752 7.58023 8.94752C8.65466 8.28668 10.2288 7.70208 10.2288 7.70208C6.18097 10.0913 4.93164 12.8109 4.93164 12.8109C6.50581 9.71002 11.1284 7.52416 14.7514 7.37165C18.3745 7.21916 20.7482 8.31209 23.6467 10.6759C26.5452 13.0651 28.2943 17.9451 28.1194 21.8085C27.9695 25.672 25.9705 28.7982 25.9705 28.7982C27.3447 26.9935 28.1693 25.672 28.6941 24.3248C28.794 23.9181 28.894 23.5115 28.9439 23.0793C30.1933 15.3526 25.046 8.05791 17.4251 6.81249Z" fill="url(#paint3_linear_195_21)"/>
<path d="M28.4691 20.6895C28.4691 28.1365 22.5222 34.1859 15.2012 34.1859C7.88005 34.1859 1.9082 28.1365 1.9082 20.6895H28.4691Z" fill="url(#paint4_linear_195_21)"/>
<g opacity="0.6">
<path opacity="0.6" d="M27.42 20.6895C27.42 27.9587 21.773 33.9062 14.6768 34.1859C14.8517 34.1859 15.0266 34.1859 15.2015 34.1859C22.5226 34.1859 28.4695 28.1365 28.4695 20.6895H27.42Z" fill="url(#paint5_linear_195_21)"/>
</g>
<g opacity="0.7">
<path opacity="0.7" d="M3.78222 20.6895H1.9082C1.9082 28.1365 7.85506 34.1859 15.1762 34.1859C15.501 34.1859 15.8009 34.1859 16.1007 34.1603C9.22933 33.6521 3.78222 27.8062 3.78222 20.6895Z" fill="url(#paint6_linear_195_21)"/>
</g>
<path d="M28.4442 20.8171C28.4442 19.2666 25.7956 18.3769 22.2724 18.0721C19.7237 17.8687 17.1502 18.1228 14.2017 19.0379C11.653 19.8004 9.35426 19.6733 7.68015 19.4699C3.95711 19.0379 1.9082 18.987 1.9082 20.8171C1.9082 23.4605 7.20539 26.7646 15.1512 25.6208C19.1741 25.0363 21.248 23.8417 23.6217 23.0283C26.1954 22.1641 28.4442 22.1895 28.4442 20.8171Z" fill="url(#paint7_linear_195_21)"/>
<path d="M19.5491 14.4125C20.7911 14.4125 21.7978 13.3883 21.7978 12.1249C21.7978 10.8616 20.7911 9.8374 19.5491 9.8374C18.3071 9.8374 17.3003 10.8616 17.3003 12.1249C17.3003 13.3883 18.3071 14.4125 19.5491 14.4125Z" fill="white"/>
<path d="M23.2224 16.1155C23.7468 16.1155 24.1719 15.6831 24.1719 15.1497C24.1719 14.6163 23.7468 14.1838 23.2224 14.1838C22.6981 14.1838 22.2729 14.6163 22.2729 15.1497C22.2729 15.6831 22.6981 16.1155 23.2224 16.1155Z" fill="white"/>
<g opacity="0.6">
<path opacity="0.6" d="M26.6205 10.2956C26.5955 10.2956 26.5706 10.2956 26.5706 10.2956C26.4205 10.2702 26.3207 10.1177 26.3456 9.9398C26.5706 8.77062 27.52 7.65228 27.5701 7.60144C27.6699 7.47436 27.8699 7.47436 27.9698 7.57602C28.0947 7.67769 28.0947 7.88103 27.9947 7.98269C27.9698 8.00811 27.0952 9.05021 26.8954 10.0669C26.8704 10.2194 26.7455 10.2956 26.6205 10.2956Z" fill="url(#paint8_linear_195_21)"/>
</g>
<path opacity="0.2" d="M14.2812 31.4165C14.6676 31.4165 14.9808 31.0979 14.9808 30.7048C14.9808 30.3118 14.6676 29.9932 14.2812 29.9932C13.8948 29.9932 13.5815 30.3118 13.5815 30.7048C13.5815 31.0979 13.8948 31.4165 14.2812 31.4165Z" fill="white"/>
<g opacity="0.4">
<path opacity="0.6" d="M13.8774 31.1687C13.6025 30.8891 13.6025 30.4317 13.8774 30.152C13.9273 30.1012 13.9773 30.0758 14.0273 30.0249C13.9273 30.0504 13.8524 30.1012 13.7774 30.1774C13.5026 30.4571 13.5026 30.9146 13.7774 31.1941C14.0023 31.4228 14.3521 31.4737 14.627 31.3212C14.3771 31.4228 14.0773 31.3721 13.8774 31.1687Z" fill="url(#paint9_linear_195_21)"/>
</g>
<path opacity="0.3" d="M14.5269 30.5011C14.6097 30.5011 14.6768 30.4328 14.6768 30.3486C14.6768 30.2643 14.6097 30.196 14.5269 30.196C14.4441 30.196 14.377 30.2643 14.377 30.3486C14.377 30.4328 14.4441 30.5011 14.5269 30.5011Z" fill="white"/>
<path opacity="0.2" d="M17.9295 31.0602C18.316 31.0602 18.6292 30.7414 18.6292 30.3484C18.6292 29.9553 18.316 29.6367 17.9295 29.6367C17.5432 29.6367 17.23 29.9553 17.23 30.3484C17.23 30.7414 17.5432 31.0602 17.9295 31.0602Z" fill="white"/>
<g opacity="0.4">
<path opacity="0.6" d="M17.5253 30.8108C17.2504 30.5312 17.2504 30.0736 17.5253 29.794C17.5752 29.7432 17.6253 29.7177 17.6752 29.667C17.5752 29.6924 17.5002 29.7432 17.4253 29.8195C17.1506 30.099 17.1506 30.5565 17.4253 30.8362C17.6503 31.0649 18 31.1157 18.2749 30.9632C18.025 31.0649 17.7252 31.014 17.5253 30.8108Z" fill="url(#paint10_linear_195_21)"/>
</g>
<path opacity="0.3" d="M18.1753 30.1447C18.2581 30.1447 18.3252 30.0765 18.3252 29.9922C18.3252 29.9081 18.2581 29.8398 18.1753 29.8398C18.0925 29.8398 18.0254 29.9081 18.0254 29.9922C18.0254 30.0765 18.0925 30.1447 18.1753 30.1447Z" fill="white"/>
<path opacity="0.2" d="M16.1258 32.7129C16.4156 32.7129 16.6506 32.474 16.6506 32.1793C16.6506 31.8844 16.4156 31.6455 16.1258 31.6455C15.836 31.6455 15.6011 31.8844 15.6011 32.1793C15.6011 32.474 15.836 32.7129 16.1258 32.7129Z" fill="white"/>
<g opacity="0.4">
<path opacity="0.6" d="M15.8259 32.5146C15.6261 32.3112 15.6261 31.9554 15.8259 31.752C15.8509 31.7267 15.9009 31.7013 15.9259 31.6758C15.8509 31.7013 15.801 31.752 15.751 31.8029C15.5511 32.0062 15.5511 32.3621 15.751 32.5655C15.9259 32.7433 16.1758 32.7687 16.4007 32.6417C16.2008 32.718 15.9759 32.6671 15.8259 32.5146Z" fill="url(#paint11_linear_195_21)"/>
</g>
<path opacity="0.3" d="M16.3006 32.0005C16.3558 32.0005 16.4005 31.955 16.4005 31.8989C16.4005 31.8428 16.3558 31.7971 16.3006 31.7971C16.2454 31.7971 16.2007 31.8428 16.2007 31.8989C16.2007 31.955 16.2454 32.0005 16.3006 32.0005Z" fill="white"/>
<path opacity="0.2" d="M19.3488 32.3308C19.6386 32.3308 19.8736 32.0919 19.8736 31.7972C19.8736 31.5023 19.6386 31.2634 19.3488 31.2634C19.0592 31.2634 18.8242 31.5023 18.8242 31.7972C18.8242 32.0919 19.0592 32.3308 19.3488 32.3308Z" fill="white"/>
<g opacity="0.4">
<path opacity="0.6" d="M19.0491 32.1325C18.8493 31.9291 18.8493 31.5734 19.0491 31.37C19.0742 31.3446 19.1241 31.3192 19.1491 31.2937C19.0742 31.3192 19.0241 31.37 18.9742 31.4208C18.7742 31.6241 18.7742 31.98 18.9742 32.1834C19.1491 32.3613 19.399 32.3866 19.6238 32.2596C19.424 32.3359 19.199 32.285 19.0491 32.1325Z" fill="url(#paint12_linear_195_21)"/>
</g>
<path opacity="0.3" d="M19.5238 31.6204C19.5791 31.6204 19.6238 31.5749 19.6238 31.5186C19.6238 31.4625 19.5791 31.417 19.5238 31.417C19.4687 31.417 19.4238 31.4625 19.4238 31.5186C19.4238 31.5749 19.4687 31.6204 19.5238 31.6204Z" fill="white"/>
<path opacity="0.2" d="M11.3032 31.1619C11.938 31.1619 12.4526 30.6384 12.4526 29.9927C12.4526 29.347 11.938 28.8235 11.3032 28.8235C10.6684 28.8235 10.1538 29.347 10.1538 29.9927C10.1538 30.6384 10.6684 31.1619 11.3032 31.1619Z" fill="white"/>
<g opacity="0.4">
<path opacity="0.6" d="M10.6542 30.73C10.2045 30.2725 10.2045 29.5353 10.6542 29.0779C10.7292 29.0017 10.8042 28.9508 10.9041 28.8999C10.7542 28.9508 10.6293 29.0524 10.5043 29.1542C10.0545 29.6116 10.0545 30.3487 10.5043 30.8063C10.8791 31.1875 11.4538 31.2638 11.9036 30.9841C11.4788 31.162 10.9791 31.0858 10.6542 30.73Z" fill="url(#paint13_linear_195_21)"/>
</g>
<path opacity="0.3" d="M11.7035 29.6369C11.8415 29.6369 11.9533 29.5232 11.9533 29.3828C11.9533 29.2424 11.8415 29.1287 11.7035 29.1287C11.5655 29.1287 11.4536 29.2424 11.4536 29.3828C11.4536 29.5232 11.5655 29.6369 11.7035 29.6369Z" fill="white"/>
<path opacity="0.2" d="M21.5771 28.29C22.212 28.29 22.7265 27.7666 22.7265 27.1208C22.7265 26.4751 22.212 25.9517 21.5771 25.9517C20.9424 25.9517 20.4277 26.4751 20.4277 27.1208C20.4277 27.7666 20.9424 28.29 21.5771 28.29Z" fill="white"/>
<g opacity="0.4">
<path opacity="0.6" d="M20.8984 27.8584C20.4486 27.4009 20.4486 26.6639 20.8984 26.2064C20.9733 26.1301 21.0483 26.0792 21.1483 26.0283C20.9982 26.0792 20.8734 26.1808 20.7485 26.2826C20.2987 26.7401 20.2987 27.4772 20.7485 27.9347C21.1232 28.316 21.6979 28.3922 22.1478 28.1126C21.723 28.2906 21.2481 28.2143 20.8984 27.8584Z" fill="url(#paint14_linear_195_21)"/>
</g>
<path opacity="0.3" d="M21.9725 26.7653C22.1106 26.7653 22.2224 26.6514 22.2224 26.511C22.2224 26.3706 22.1106 26.2568 21.9725 26.2568C21.8346 26.2568 21.7227 26.3706 21.7227 26.511C21.7227 26.6514 21.8346 26.7653 21.9725 26.7653Z" fill="white"/>
<defs>
<radialGradient id="paint0_radial_195_21" cx="0" cy="0" r="1" gradientUnits="userSpaceOnUse" gradientTransform="translate(30.6622 6.17782) scale(11.1677 11.36)">
<stop stop-color="#FFEAFF" stop-opacity="0.6"/>
<stop offset="0.6807" stop-color="#A087C9"/>
<stop offset="1" stop-color="#10002F"/>
</radialGradient>
<radialGradient id="paint1_radial_195_21" cx="0" cy="0" r="1" gradientUnits="userSpaceOnUse" gradientTransform="translate(27.739 18.2942) scale(31.2766 33.8369)">
<stop stop-color="#FFEAFF" stop-opacity="0.6"/>
<stop offset="0.6807" stop-color="#A087C9"/>
<stop offset="1" stop-color="#10002F"/>
</radialGradient>
<linearGradient id="paint2_linear_195_21" x1="12.961" y1="34.8241" x2="17.5797" y2="6.81228" gradientUnits="userSpaceOnUse">
<stop stop-color="#81FFFF"/>
<stop offset="0.6202" stop-color="white" stop-opacity="0"/>
</linearGradient>
<linearGradient id="paint3_linear_195_21" x1="25.0448" y1="11.1681" x2="13.3149" y2="21.7485" gradientUnits="userSpaceOnUse">
<stop offset="0.2888" stop-color="white"/>
<stop offset="0.7796" stop-color="white" stop-opacity="0"/>
</linearGradient>
<linearGradient id="paint4_linear_195_21" x1="1.91944" y1="27.4296" x2="28.4627" y2="27.4296" gradientUnits="userSpaceOnUse">
<stop stop-color="#0002E9"/>
<stop offset="0.9952" stop-color="#FF00C7"/>
</linearGradient>
<linearGradient id="paint5_linear_195_21" x1="29.7195" y1="21.8737" x2="15.0397" y2="35.5121" gradientUnits="userSpaceOnUse">
<stop offset="0.2888" stop-color="white"/>
<stop offset="0.7796" stop-color="white" stop-opacity="0"/>
</linearGradient>
<linearGradient id="paint6_linear_195_21" x1="1.91944" y1="27.4296" x2="16.12" y2="27.4296" gradientUnits="userSpaceOnUse">
<stop stop-color="#000292"/>
<stop offset="0.9952" stop-color="#7D00C7"/>
</linearGradient>
<linearGradient id="paint7_linear_195_21" x1="1.93726" y1="21.9383" x2="28.4449" y2="21.9383" gradientUnits="userSpaceOnUse">
<stop stop-color="#000292"/>
<stop offset="0.9952" stop-color="#BE00C7"/>
</linearGradient>
<linearGradient id="paint8_linear_195_21" x1="28.0104" y1="7.47766" x2="26.0576" y2="10.5971" gradientUnits="userSpaceOnUse">
<stop offset="0.2888" stop-color="white"/>
<stop offset="0.7796" stop-color="white" stop-opacity="0"/>
</linearGradient>
<linearGradient id="paint9_linear_195_21" x1="13.5706" y1="30.733" x2="14.6277" y2="30.733" gradientUnits="userSpaceOnUse">
<stop offset="0.2888" stop-color="white"/>
<stop offset="0.7796" stop-color="white" stop-opacity="0"/>
</linearGradient>
<linearGradient id="paint10_linear_195_21" x1="17.216" y1="30.3701" x2="18.2731" y2="30.3701" gradientUnits="userSpaceOnUse">
<stop offset="0.2888" stop-color="white"/>
<stop offset="0.7796" stop-color="white" stop-opacity="0"/>
</linearGradient>
<linearGradient id="paint11_linear_195_21" x1="15.587" y1="32.1893" x2="16.3807" y2="32.1893" gradientUnits="userSpaceOnUse">
<stop offset="0.2888" stop-color="white"/>
<stop offset="0.7796" stop-color="white" stop-opacity="0"/>
</linearGradient>
<linearGradient id="paint12_linear_195_21" x1="18.8102" y1="31.8072" x2="19.6039" y2="31.8072" gradientUnits="userSpaceOnUse">
<stop offset="0.2888" stop-color="white"/>
<stop offset="0.7796" stop-color="white" stop-opacity="0"/>
</linearGradient>
<linearGradient id="paint13_linear_195_21" x1="10.1555" y1="30.0228" x2="11.882" y2="30.0228" gradientUnits="userSpaceOnUse">
<stop offset="0.2888" stop-color="white"/>
<stop offset="0.7796" stop-color="white" stop-opacity="0"/>
</linearGradient>
<linearGradient id="paint14_linear_195_21" x1="20.4093" y1="27.1502" x2="22.1357" y2="27.1502" gradientUnits="userSpaceOnUse">
<stop offset="0.2888" stop-color="white"/>
<stop offset="0.7796" stop-color="white" stop-opacity="0"/>
</linearGradient>
</defs>
</svg>
